<?xml version="1.0" encoding="UTF-8" standalone="no"?>
<svg
   width="1024"
   height="1024"
   viewBox="0 0 1024 1024"
   version="1.1"
   xmlns="http://www.w3.org/2000/svg"
>
  <defs
     id="defs2" />
  <path
     fill="#5ec269"
     d="m 472.8862,49.020558 c 48.65303,-1.807919 104.19215,21.123777 124.80635,76.829402 20.98703,56.71729 13.17218,132.63236 -5.48429,189.15498 -48.05034,145.5814 -144.92476,275.9383 -264.2535,342.35421 -37.24346,18.90417 -87.4533,40.30081 -127.59659,26.52041 -15.42524,-5.29451 -34.64163,-31.49418 -9.05095,-43.10763 l 0.86059,-0.38297 c -6.6803,-31.55322 -4.88695,-47.95056 1.34969,-79.66973 4.45131,-19.81371 9.63626,-38.228 16.0934,-57.30132 4.76401,-14.074 12.50669,-29.43254 15.12189,-43.99324 -7.5115,6.22799 -16.14017,17.17763 -23.65434,24.49388 C 172.93538,511.22723 143.34507,540.355 105.8584,544.34104 61.877182,549.01961 31.967491,519.06847 28.713533,466.3787 24.540181,402.55898 55.961259,339.54349 90.585514,292.31419 172.16298,181.03858 288.25914,93.642501 409.12065,59.100547 c 21.122,-6.036504 42.47117,-7.959314 63.76555,-10.079989 z M 454.41949,180.7338 c -8.52577,9.87255 -17.23328,19.86478 -25.30871,30.65804 -81.43048,108.81824 -152.74362,232.46366 -193.76755,370.7719 -2.10739,7.10562 -14.42432,51.02546 -10.99664,56.12369 3.11765,1.12816 6.42506,0.70849 9.60151,0.083 36.98689,-7.28593 73.65305,-23.69284 106.51603,-44.67939 26.52878,-17.04199 51.55954,-37.21314 74.72077,-60.21345 64.00476,-63.08251 130.87595,-159.71764 156.85149,-255.12728 18.39054,-67.55045 18.46538,-166.0685 -50.50117,-189.338488 -15.55085,-5.246637 -39.48715,-9.966695 -55.63935,-7.313059 -29.57961,3.346167 -56.08167,8.862476 -84.49868,20.606777 -92.45518,39.15031 -175.77656,113.17608 -238.69355,202.9992 -30.10213,47.0825 -72.665503,106.83001 -72.966177,168.75086 -0.113588,23.56838 20.210623,42.78849 39.380247,37.96312 59.04564,-14.86547 111.6836,-80.84895 149.51103,-133.78445 15.48938,-21.67589 25.30738,-48.68777 39.54996,-71.40085 35.56771,-60.74004 73.00092,-119.25887 122.43971,-165.2531 13.55037,-12.60597 44.03869,-43.023063 51.97648,0.50902 1.75326,9.61245 -5.22772,21.98067 -10.81758,29.3767 -2.41341,3.13394 -4.86557,6.2232 -7.35782,9.26778 z"
     id="path1"
     strokeWidth="1.46026" />
  <path
     fill="#5ec269"
     d="m 757.26881,180.6221 c 5.205,-0.83135 13.46617,1.50634 18.02706,4.54613 5.67806,3.80413 9.83938,10.17254 11.54587,17.67389 8.12621,34.52759 -37.9183,94.40436 -55.85984,120.01522 -11.60601,16.53935 -23.09041,33.19678 -34.4532,49.97389 -18.09388,27.01986 -35.31113,53.55942 -49.89715,84.48075 -6.98098,14.80164 -28.1738,63.2341 -9.51198,77.60331 9.34093,7.19178 30.14221,-6.95882 38.68134,-14.14103 30.4028,-25.57097 55.66742,-58.1231 81.08838,-90.37842 30.41215,-38.60299 60.6292,-77.423 90.6498,-116.45842 18.82886,-24.50984 37.81675,-50.69834 57.91779,-73.76886 16.55844,-17.73293 37.28088,-40.25613 58.56858,-48.56011 23.6196,-9.21194 39.95754,5.75247 22.35276,32.91275 -10.29507,16.47552 -23.95368,30.36602 -34.9383,46.04211 -59.59487,85.04242 -110.91254,176.63836 -158.55797,271.65865 -11.21447,22.36363 -22.02803,45.06395 -33.30129,67.41163 39.98961,6.99072 80.12354,23.57316 108.57797,59.27678 35.90045,45.04799 31.94759,114.28349 -7.36049,154.27792 -7.69859,7.56678 -25.95149,25.93958 -36.21582,25.3013 -11.77038,-1.87494 -16.53305,-20.79027 -5.74087,-27.84483 22.1483,-14.47772 47.09754,-41.16727 48.60893,-73.88854 3.46911,-75.04541 -74.63124,-102.92216 -122.58002,-108.80229 -6.03219,13.43574 -15.06576,29.64159 -21.70999,43.0837 -17.93619,36.28605 -36.60202,70.97161 -57.12267,105.26943 -2.87043,5.48918 -9.56944,15.44151 -13.02118,20.86048 -15.08179,23.74869 -31.18054,46.54954 -48.23475,68.31319 -49.88646,63.17346 -117.75053,123.09809 -193.41342,126.41557 -54.5449,2.3935 -115.60706,-36.35788 -116.1897,-108.88689 -0.4009,-49.79039 20.22131,-85.82272 48.82808,-119.37854 85.02387,-99.73237 241.63348,-165.35522 358.42586,-166.49295 2.34259,-4.44081 4.56757,-9.18002 6.71104,-13.76444 16.55577,-35.40044 34.45588,-69.80357 52.34397,-104.25456 8.26786,-15.92342 15.74194,-34.49888 25.65482,-49.00691 -1.32297,0.0431 -4.72392,4.17433 -6.0549,5.58492 -42.84,44.98257 -84.08175,117.63924 -143.38398,130.21329 -28.33683,6.00938 -48.72919,-23.50774 -50.83525,-54.84714 -5.91993,-88.09179 58.72092,-181.11747 105.5071,-241.30859 8.48301,-10.95123 17.11034,-21.73971 25.87933,-32.36542 5.81302,-7.01946 14.02208,-16.34468 19.1028,-23.8221 l 0.63877,-0.95103 c -25.58534,10.18211 -46.89175,25.6332 -69.34206,42.98157 -10.32046,7.97527 -25.07753,22.9684 -36.55792,26.8587 -4.21077,1.42814 -8.75696,0.89837 -12.50803,-1.87813 -3.54127,-2.62173 -5.64064,-6.79127 -6.45446,-11.60707 -0.72296,-4.27007 -0.10557,-8.09974 2.0673,-11.62143 11.05945,-17.93239 96.81963,-69.96952 117.25208,-79.349 8.20505,-3.76583 16.1081,-6.03012 24.81561,-7.37848 z M 345.4032,946.40288 c 22.93673,19.1499 54.62774,25.37789 81.91957,19.53765 84.08175,-17.99462 151.06251,-128.08942 196.40278,-206.69801 7.63177,-13.22989 64.01145,-115.89514 63.81901,-120.79232 -0.008,-0.21383 -0.0682,-0.41967 -0.10289,-0.6303 -1.90026,-0.25691 -1.38444,-0.2968 -3.27534,-0.0144 -64.28138,7.83485 -131.58687,30.28145 -191.2753,59.44273 -60.25636,29.44052 -178.1472,109.67034 -170.35909,200.51152 1.69714,18.62811 9.44517,35.71957 21.5817,47.5995 0.54389,0.52499 0.75369,0.65424 1.28956,1.04359 z"
     id="path2"
     strokeWidth="1.46026" />
</svg>
