<?xml version="1.0" encoding="UTF-8" standalone="no"?>
<svg
   width="1024"
   height="350"
   viewBox="0 0 1024 350"
   version="1.1"
   xmlns="http://www.w3.org/2000/svg"
>
  <defs
     id="defs5" />
  <path
    fill="currentColor"
    d="m 917.5403,71.433139 c 2.4207,-0.13193 5.07516,-0.12966 7.42045,0.75522 2.30757,0.87009 4.58499,2.39759 5.78402,5.69257 4.14761,11.40335 -13.38545,89.818691 -16.26615,106.832721 -2.91087,17.18691 -11.80183,69.99534 -6.39486,83.72804 2.40561,2.63985 3.04661,2.82638 5.70108,0.16378 4.51711,-4.53131 8.62701,-10.69135 12.51068,-16.30772 1.42527,-15.03158 1.97577,-30.69668 3.78563,-45.63271 -8.75521,-10.66064 -5.55025,-14.00453 2.56398,-20.86292 3.9817,-33.39908 18.40783,-98.502561 43.19542,-109.521481 8.03882,-3.57022 16.56026,-1.64237 23.89775,4.04679 6.3044,4.89414 12.0281,20.684351 2.2397,24.885821 -4.51711,1.81412 -9.47915,-4.79291 -13.07626,-8.952301 -17.61601,15.279531 -28.02273,70.269451 -29.90801,98.875631 9.4113,1.3694 35.23203,-5.87456 38.16552,-1.42172 15.03695,22.83285 -36.18975,25.76842 -41.16687,26.05504 -1.25937,32.49714 -2.63939,61.09308 0.0603,93.57658 -3.73285,5.96896 -6.75683,9.96002 -12.52577,10.58671 -4.06466,0.39353 -8.06144,-1.7163 -11.07788,-5.84726 -5.44467,-7.34404 -5.77648,-15.74357 -6.17616,-25.75022 -21.27345,10.86423 -35.66941,8.11291 -44.5302,-25.54436 -1.96069,3.46673 -4.00433,6.82882 -6.12338,10.0783 -19.26751,29.3978 -40.02062,19.4628 -57.48581,-7.15069 -3.52169,6.75716 -6.7342,11.46818 -11.74149,15.79817 -7.10372,6.13957 -15.54221,7.68867 -23.41512,4.29701 -9.26047,-4.05361 -24.92334,-20.82879 -21.5223,-37.90196 5.42205,-9.41635 14.954,6.04289 20.8059,11.3044 25.10432,-13.2277 4.39646,-29.7174 -6.08567,-43.83453 -8.91358,-11.99364 -12.22413,-25.73999 -10.72345,-43.47739 0.98035,-11.58987 4.57745,-19.41048 6.71912,-30.15414 l 0.18853,-0.93834 c -20.05179,19.59474 -25.98663,74.62674 -34.21397,106.74741 -1.79479,6.99033 -5.87452,34.47619 -11.93757,35.26666 -10.69328,1.39557 -16.39435,0.97132 -18.23438,-15.93806 -10.40672,23.1843 -27.56272,35.98207 -43.51215,12.00843 -3.03152,-4.5552 -4.33613,-11.60922 -5.25615,-17.83749 -1.84002,3.54861 -3.76301,7.86837 -5.51254,11.58987 -7.18667,13.85098 -20.24032,13.8942 -28.27159,3.11528 -18.77734,-26.06073 -5.31647,-77.64875 2.31512,-107.33544 1.93806,-6.85384 6.7342,-27.69855 11.98281,-28.42989 14.02645,-1.95401 3.64989,34.86403 1.97577,45.13 -4.26072,25.17812 -6.21387,51.11829 -5.79911,77.09485 13.00086,-23.33443 24.74989,-63.39969 34.53824,-90.5523 3.93646,-10.95067 7.51848,-22.40861 12.39003,-32.49373 4.68303,-9.69273 20.5495,-1.81867 17.75929,11.32941 -8.24242,38.80505 -17.53306,72.13589 -17.44256,113.65244 9.64507,-23.49822 17.9629,-59.89998 23.82234,-86.60219 3.00889,-13.69971 4.35875,-29.08501 8.03881,-43.62866 27.2837,-14.57435 19.49374,36.02302 16.89206,58.58403 10.02213,-26.55662 15.42156,-81.37366 44.26627,-58.92524 8.05389,-11.03825 17.03534,-16.4897 28.06797,-15.52975 6.83978,0.59485 20.53442,6.8527 19.90097,20.21119 -3.18235,9.02964 -10.95722,4.35388 -16.00976,1.7709 -14.01136,10.53439 -24.6971,37.54483 -14.17727,59.5508 4.69057,9.80875 14.23006,20.3238 20.53442,28.4697 0.008,-1.19652 0.0453,-2.39191 0.10557,-3.58502 1.80987,-35.6818 22.27642,-103.01909 51.79983,-97.6518 30.11915,5.4776 17.94782,49.50435 4.69056,72.83309 -10.51983,18.51651 -19.3203,29.35457 -32.21558,44.29061 2.48102,14.08074 4.9168,27.61553 16.74878,17.38254 8.94375,-7.72961 17.13338,-18.88501 24.19185,-30.1314 0.5505,-9.51985 1.02559,-18.31405 2.35283,-27.70651 4.60007,-32.48577 20.21769,-115.345991 35.39038,-136.058771 z M 844.05982,216.42601 c 6.28173,-9.59264 31.63492,-47.19661 25.03645,-60.75756 -1.08592,-0.35487 -1.83249,-0.69722 -2.95611,-0.63125 -8.86079,10.2944 -14.72023,22.21184 -19.38063,37.52549 -1.89281,6.21918 -5.70107,18.3914 -5.29385,24.99956 l 0.81444,0.40149 z"
    id="path1"
    strokeWidth="0.926125" />
  <path
    fill="currentColor"
    d="m 59.684284,21.321429 c 18.761505,-2.86278 45.244346,10.12266 60.598776,25.92424 25.88181,26.63625 37.66855,52.976771 44.22403,97.883841 1.09573,-6.33861 2.94028,-19.93254 5.80967,-23.88606 7.09316,-9.77121 14.83561,-3.09026 16.44186,9.70751 1.98783,15.84481 1.00523,29.9517 0.33709,45.3552 9.30647,-21.66477 22.63235,-50.64628 42.34026,-43.74695 3.36032,1.17605 6.61732,2.13941 8.62174,6.7492 0.49696,10.92906 -9.27329,6.65138 -12.90659,10.43544 -19.9613,20.79126 -32.80153,61.07489 -34.92435,96.94436 -0.61611,10.42406 0.48037,23.61764 1.15379,34.16454 -9.08476,12.04141 -18.89574,12.97747 -24.78835,-5.12844 -2.5127,-7.71938 -2.65975,-13.8942 -3.24494,-22.29942 -1.67186,-18.81222 -0.71489,-40.67147 -0.12292,-59.75212 -6.68066,23.03076 -13.13056,42.31272 -25.48138,59.68388 -18.303,25.74113 -43.068732,42.41849 -68.378929,40.85118 -13.399782,-0.50272 -27.952598,-6.22486 -37.140675,-21.73414 -5.210147,-8.69184 -10.07114,-24.88695 2.393545,-24.96316 1.525565,-0.009 4.900207,-0.0466 6.011766,1.26022 4.425872,5.20577 6.834499,14.35029 11.644967,19.16139 2.513449,2.51247 6.017799,3.64985 8.94073,4.79746 C 44.267258,209.71776 37.125835,135.18314 29.331354,68.540789 c -0.806898,-6.89819 -3.593335,-28.199 -0.901162,-32.53582 5.965011,-9.60742 23.021472,-13.57573 31.254092,-14.68354 z m -12.896036,23.67451 c 10.796594,48.28508 19.137805,94.848181 27.067273,144.349111 3.235886,20.2021 7.692677,42.68691 8.680561,63.54414 0.27148,5.73466 -2.174099,14.25816 -3.797698,19.57426 12.012219,-5.27629 21.794536,-11.67063 31.815906,-23.30827 15.24735,-17.85683 26.5673,-43.09637 28.98497,-72.38156 2.5308,-31.32451 -3.27887,-62.88446 -16.1553,-87.754351 -13.04233,-25.21679 -33.96964,-42.12277 -54.974622,-46.36974 -2.536072,-0.51295 -6.960436,-0.94288 -9.362277,-0.099 -4.03298,0.70631 -8.283899,1.32391 -12.258813,2.44536 z"
    id="path2"
    strokeWidth="0.926125" />
  <path
    fill="currentColor"
    d="m 397.87852,97.969289 c 34.26752,-1.09757 48.85578,33.355871 42.13289,80.554751 -5.58645,39.22474 -25.1541,121.66299 -60.4012,110.74871 -9.17224,-2.84003 -15.80464,-11.23615 -20.83908,-22.53258 -1.75783,2.75473 -3.6152,5.36046 -5.56383,7.80468 -13.72329,17.02541 -28.28139,12.5339 -38.74466,-7.98552 -9.81399,18.46532 -22.22287,30.5909 -38.55237,15.89143 -7.06224,-6.3568 -9.31402,-19.90979 -10.6043,-31.65321 -5.85038,13.63033 -13.33719,33.41501 -25.23705,34.81399 -12.40134,1.45811 -24.05234,-12.13355 -23.91735,-31.70326 0.24282,-35.21207 10.98135,-71.85495 26.0364,-98.38656 6.17843,-10.85171 14.63125,-19.99281 24.38717,-20.45118 13.87185,-0.37988 22.47776,-0.57779 33.08733,13.86463 3.4855,10.11015 -0.18249,27.694 -2.13715,38.16243 -4.79991,25.71951 -6.87748,47.72435 -6.11734,74.39699 16.89735,-37.68814 24.0991,-79.30933 38.66474,-118.2827 4.74938,-12.70564 20.74632,-9.83604 16.51878,16.56021 -5.47409,34.18161 -14.47665,63.75683 -10.70083,99.20319 5.51104,-8.92727 10.03947,-18.49716 13.56041,-29.50129 4.17702,-13.05595 13.70218,-64.73838 20.98462,-69.40845 2.85883,-1.83232 7.40763,-1.51613 10.17672,0.62669 11.98582,9.26963 0.0852,56.99739 -0.35896,73.04579 -0.31522,11.40334 1.40868,21.94342 3.88065,32.59382 15.76317,-28.10004 49.83311,-113.37832 23.0162,-146.79674 -3.69816,-4.60866 -13.65844,-5.77674 -16.16209,-14.9224 l 0.67342,-2.40896 c 1.99613,-2.675111 3.65593,-3.101631 6.21688,-4.234461 z M 240.01387,260.48346 c 7.40461,-10.96432 42.40889,-95.76263 39.05386,-107.27175 -0.90644,-0.44471 -1.49239,-0.85986 -2.44785,-0.75635 -13.04308,5.17165 -16.94937,15.12143 -24.12398,31.59975 -4.91378,11.2862 -20.59399,65.41171 -13.6328,76.94585 z"
    id="path3"
    strokeWidth="0.926125"  />
  <path
    fill="currentColor"
    d="m 563.69753,70.618779 c 2.25856,-0.11715 4.41984,-0.0614 6.65351,0.52661 2.52928,0.66536 5.35569,2.03931 6.76588,5.55153 2.46895,6.14298 -22.29904,82.549721 -25.37204,93.678951 -9.40752,34.06332 -18.88442,72.89452 -20.9175,109.72166 -0.60857,11.02574 2.35207,35.9252 0.72243,43.53539 -0.37931,1.77204 -1.96973,3.59867 -3.03076,4.40848 -3.78715,2.89349 -8.70696,2.10642 -12.64266,0.37874 -5.61435,-2.46469 -9.63074,-7.21438 -12.41793,-14.98949 -9.07647,-25.32257 0.25866,-66.54226 5.41602,-92.02407 l 1.5693,-6.53423 c -28.61395,-22.40975 -26.66835,-70.31949 -21.14449,-111.132 2.07983,-15.364841 9.89166,-30.684171 18.49606,-13.563231 0.74581,1.48428 -0.28958,17.357521 -0.22247,19.815391 -1.62887,32.1093 -1.43507,51.52774 8.65417,80.53542 8.28993,-30.71147 30.66966,-101.431321 47.47048,-119.909151 z"
    id="path4"
    strokeWidth="0.926125"  />
  <path
    fill="currentColor"
    d="m 580.06096,138.3314 c 14.12448,-2.1849 26.52205,7.10406 30.23982,29.01791 6.26665,36.93292 0.92001,110.91136 -27.50994,124.33696 -18.26002,1.84255 -31.9064,-10.8358 -32.10247,-40.1426 -0.25036,-37.4618 13.85904,-68.49059 21.13695,-102.97587 1.29104,-6.11909 4.66418,-8.13794 8.23564,-10.2364 z m -5.75009,135.17275 c 11.51903,-11.98795 14.88991,-33.4878 17.4388,-53.20651 1.9456,-15.03158 5.48238,-55.21967 -3.37842,-65.9895 -8.83817,22.14815 -30.25715,97.27534 -14.06038,119.19601 z"
    id="path5"
    strokeWidth="0.926125"  />
</svg>
